<svg height="41.92503" id="svg8" inkscape:version="0.92.0 r15299" version="1.1" viewBox="0 0 41.435333 11.092664" width="156.60599" xmlns="http://www.w3.org/2000/svg" xmlns:cc="http://creativecommons.org/ns#" xmlns:dc="http://purl.org/dc/elements/1.1/" xmlns:inkscape="http://www.inkscape.org/namespaces/inkscape" xmlns:rdf="http://www.w3.org/1999/02/22-rdf-syntax-ns#" xmlns:sodipodi="http://sodipodi.sourceforge.net/DTD/sodipodi-0.dtd" xmlns:svg="http://www.w3.org/2000/svg">
<defs id="defs2"></defs>
<sodipodi:namedview bordercolor="#666666" borderopacity="1.0" fit-margin-bottom="0" fit-margin-left="0" fit-margin-right="0" fit-margin-top="0" id="base" inkscape:current-layer="layer1" inkscape:cx="77.802992" inkscape:cy="20.462513" inkscape:document-units="mm" inkscape:pageopacity="0.0" inkscape:pageshadow="2" inkscape:window-height="744" inkscape:window-maximized="1" inkscape:window-width="1280" inkscape:window-x="-4" inkscape:window-y="-4" inkscape:zoom="5.7645598" pagecolor="#ffffff" showgrid="false" units="px"></sodipodi:namedview>
<metadata id="metadata5">

</metadata>
<g id="layer1" inkscape:groupmode="layer" inkscape:label="Layer 1" transform="translate(-228.87891,-322.31543)">
<path d="m 248.28689,332.7207 v 0.508 c 0,0.0278 -0.019,0.0471 -0.0511,0.0471 h -0.11906 a 0.04736042,0.04736042 0 0 1 -0.0466,-0.0471 v -1.406 c 0,-0.0238 0.0212,-0.0471 0.0468,-0.0471 h 0.0529 c 0.0212,0 0.0341,0.008 0.0426,0.032 l 0.0254,0.0643 a 0.45032083,0.45032083 0 0 1 0.30824,-0.11774 c 0.26988,0 0.46302,0.23363 0.46302,0.51647 0,0.28945 -0.20373,0.51858 -0.47149,0.51858 -0.12752,0 -0.23389,-0.0577 -0.25082,-0.0685 z m -0.004,-0.20797 c 0,0 0.0955,0.073 0.22754,0.073 0.15928,0 0.28681,-0.13732 0.28681,-0.31486 0,-0.17594 -0.1106,-0.31326 -0.27861,-0.31326 -0.14235,0 -0.22728,0.10927 -0.23574,0.13943 z m 0.89032,-0.0534 c 0,-0.1823 0.14023,-0.31935 0.39317,-0.31935 0.10213,0 0.19764,0.0299 0.19764,0.0299 0.004,-0.15637 -0.0341,-0.22701 -0.15716,-0.22701 -0.11271,0 -0.22331,0.032 -0.27411,0.0471 -0.0299,0.006 -0.0489,-0.013 -0.0556,-0.0408 l -0.019,-0.0815 c -0.006,-0.0344 0.009,-0.0492 0.0317,-0.0579 0.0172,-0.006 0.15743,-0.0556 0.33814,-0.0556 0.31459,0 0.34422,0.1905 0.34422,0.43709 v 0.52732 a 0.04894792,0.04894792 0 0 1 -0.0468,0.0471 h -0.0701 c -0.019,0 -0.0296,-0.008 -0.0402,-0.0344 l -0.0236,-0.0661 c -0.0529,0.0513 -0.15081,0.12436 -0.30162,0.12436 -0.18495,0 -0.31671,-0.12436 -0.31671,-0.3302 z m 0.20823,-0.002 c 0,0.0878 0.0511,0.15637 0.15319,0.15637 0.0976,0 0.19738,-0.0706 0.22728,-0.11986 v -0.1651 c -0.0127,-0.009 -0.0892,-0.0344 -0.1786,-0.0344 -0.11456,0 -0.20187,0.0601 -0.20187,0.16298 z m 0.87974,0.26141 v -0.89588 c 0,-0.0238 0.0212,-0.0471 0.0468,-0.0471 h 0.0511 a 0.04497917,0.04497917 0 0 1 0.0423,0.0344 l 0.0278,0.09 a 0.3730625,0.3730625 0 0 1 0.29739,-0.14579 c 0.0937,0 0.21034,0.0257 0.17859,0.0921 l -0.0511,0.10715 c -0.0127,0.0278 -0.0381,0.0344 -0.0595,0.0238 a 0.24077083,0.24077083 0 0 0 -0.0892,-0.0196 c -0.14446,0 -0.22304,0.11588 -0.23177,0.13308 v 0.62786 c 0,0.0429 -0.0275,0.0471 -0.068,0.0471 h -0.0976 a 0.04736042,0.04736042 0 0 1 -0.0468,-0.0471 z m 0.88635,-0.2249 v -0.53604 h -0.11271 a 0.04736042,0.04736042 0 0 1 -0.0468,-0.0471 v -0.0878 a 0.04497917,0.04497917 0 0 1 0.0468,-0.0471 h 0.11245 v -0.27649 c 0,-0.0257 0.0212,-0.0471 0.0468,-0.0471 h 0.12118 c 0.0254,0 0.0447,0.0212 0.0447,0.0471 v 0.27649 h 0.25929 c 0.0254,0 0.0466,0.0193 0.0466,0.0471 v 0.0878 c 0,0.0238 -0.0212,0.0471 -0.0468,0.0471 h -0.25929 v 0.52731 c 0,0.0836 0.032,0.10054 0.0788,0.10054 0.0617,0 0.12118,-0.0254 0.15716,-0.0468 0.0299,-0.0172 0.0489,0 0.0574,0.0212 l 0.0384,0.10081 c 0.0106,0.0259 0,0.0429 -0.0235,0.0582 -0.0402,0.0254 -0.15505,0.0704 -0.272,0.0704 -0.19552,0 -0.2487,-0.11985 -0.2487,-0.29554 z m 1.18983,-0.22516 c 0,-0.2786 0.22516,-0.51435 0.50165,-0.51435 0.27411,0 0.49927,0.23548 0.49927,0.51435 0,0.28311 -0.22516,0.5207 -0.49927,0.5207 -0.27649,0 -0.50165,-0.23786 -0.50165,-0.5207 z m 0.20823,0 c 0,0.1823 0.12753,0.31724 0.29342,0.31724 0.16351,0 0.29104,-0.13494 0.29104,-0.31724 0,-0.1778 -0.12753,-0.31088 -0.29104,-0.31088 -0.16589,0 -0.29342,0.13308 -0.29342,0.31088 z m 1.11125,0.45006 v -0.74348 h -0.12727 a 0.04736042,0.04736042 0 0 1 -0.0468,-0.0476 v -0.10477 a 0.04497917,0.04497917 0 0 1 0.0468,-0.0471 h 0.12753 v -0.11377 c 0,-0.26564 0.12542,-0.41804 0.36328,-0.41804 0.13176,0 0.23362,0.0582 0.27834,0.0987 0.0169,0.0151 0.019,0.0408 0.008,0.0558 l -0.0616,0.09 c -0.0148,0.0238 -0.0381,0.0259 -0.0635,0.009 a 0.2587625,0.2587625 0 0 0 -0.15743,-0.0495 c -0.1106,0 -0.15505,0.09 -0.15505,0.21431 v 0.11377 h 0.27834 c 0.0254,0 0.0468,0.0193 0.0468,0.0471 v 0.10504 c 0,0.0238 -0.0212,0.0471 -0.0468,0.0471 h -0.27834 v 0.74374 a 0.04894792,0.04894792 0 0 1 -0.0468,0.0471 h -0.11906 a 0.04894792,0.04894792 0 0 1 -0.0466,-0.0471 z" id="path10" inkscape:connector-curvature="0" style="fill:#141a26;fill-rule:nonzero;stroke-width:0.26458332"></path>
<path d="m 260.29659,331.23162 c 0,-0.11245 0.09,-0.20373 0.20108,-0.20373 0.11113,0 0.20162,0.0913 0.20162,0.20373 0,0.11245 -0.0905,0.20373 -0.20162,0.20373 a 0.20240625,0.20240625 0 0 1 -0.20108,-0.20373 m -3.30676,1.26709 c -0.17357,0 -0.29395,-0.13891 -0.29395,-0.33761 0,-0.19844 0.12038,-0.33734 0.29395,-0.33734 0.17462,0 0.29633,0.1389 0.29633,0.33734 0,0.20188 -0.11906,0.33761 -0.29633,0.33761 z m 0,-0.97155 c -0.36698,0 -0.63341,0.2667 -0.63341,0.63394 0,0.36751 0.26643,0.63421 0.63341,0.63421 0.36856,0 0.63606,-0.2667 0.63606,-0.63421 0,-0.36724 -0.2675,-0.63394 -0.63606,-0.63394 z m 2.9165,0.66569 a 0.30056666,0.30056666 0 0 0 -0.0482,-0.068 l -0.0111,-0.0119 0.0117,-0.0114 a 0.49741666,0.49741666 0 0 0 0.0508,-0.0638 l 0.32385,-0.48578 h -0.39317 l -0.24342,0.37994 c -0.0138,0.0204 -0.0418,0.0307 -0.0833,0.0307 h -0.0556 v -0.71834 c 0,-0.14367 -0.0886,-0.16325 -0.18441,-0.16325 h -0.16404 v 1.69572 h 0.34845 v -0.5088 h 0.0328 c 0.0397,0 0.0667,0.005 0.0794,0.0265 l 0.19208,0.36592 c 0.0537,0.0992 0.10716,0.11642 0.20797,0.11642 h 0.26696 l -0.19897,-0.33205 -0.13176,-0.25189 m 1.69148,-0.6686 c -0.17727,0 -0.29025,0.0794 -0.35375,0.14658 l -0.0212,0.0217 -0.007,-0.0294 c -0.0185,-0.072 -0.0812,-0.11166 -0.17568,-0.11166 h -0.15611 l 8e-4,1.22476 h 0.34607 v -0.56436 c 0,-0.0556 0.007,-0.10319 0.0217,-0.14684 0.0384,-0.13229 0.14605,-0.21431 0.28019,-0.21431 0.10821,0 0.15028,0.0574 0.15028,0.20584 v 0.5334 c 0,0.127 0.0582,0.18627 0.18389,0.18627 h 0.16483 l -5.2e-4,-0.77894 c 0,-0.30956 -0.14976,-0.47307 -0.43313,-0.47307 m -1.0959,0.0278 h -0.16404 l 10e-4,0.94721 v 0.27728 h 0.17489 l 0.006,2.7e-4 0.0815,-2.7e-4 h 0.0812 v -5.3e-4 h 5.3e-4 l 5.3e-4,-1.03796 c 0,-0.12514 -0.0593,-0.186 -0.18204,-0.186 m -2.15291,0.94668 c -0.1733,0 -0.29422,-0.13891 -0.29422,-0.33761 0,-0.19844 0.12092,-0.33734 0.29422,-0.33734 0.17436,0 0.29633,0.1389 0.29633,0.33734 0,0.20188 -0.11906,0.33761 -0.29633,0.33761 z m 0,-0.97155 c -0.36751,0 -0.63394,0.2667 -0.63394,0.63394 0,0.36751 0.26643,0.63421 0.63394,0.63421 0.36803,0 0.63606,-0.2667 0.63606,-0.63421 0,-0.36724 -0.26803,-0.63394 -0.63606,-0.63394 z m 4.4114,0.91784 c -0.18918,0 -0.25665,-0.16669 -0.25665,-0.32279 0,-0.0685 0.0175,-0.29263 0.23839,-0.29263 0.11007,0 0.25665,0.0318 0.25665,0.30427 0,0.25717 -0.12965,0.31115 -0.23813,0.31115 z m 0.41804,-0.89614 c -0.0659,0 -0.11642,0.0265 -0.14182,0.0746 l -0.01,0.0185 -0.0159,-0.0138 c -0.0561,-0.0489 -0.1561,-0.10663 -0.31882,-0.10663 -0.32359,0 -0.54134,0.24501 -0.54134,0.60987 0,0.36459 0.22516,0.61912 0.54795,0.61912 0.11007,0 0.19712,-0.0259 0.26617,-0.0786 l 0.0267,-0.0204 v 0.0341 c 0,0.16378 -0.10478,0.254 -0.29501,0.254 -0.0926,0 -0.17648,-0.023 -0.23284,-0.0434 -0.0733,-0.0222 -0.11641,-0.004 -0.14605,0.0704 l -0.0275,0.0688 -0.0389,0.10001 0.0241,0.013 c 0.12171,0.0651 0.28019,0.10398 0.42333,0.10398 0.29475,0 0.63897,-0.15214 0.63897,-0.5805 l 10e-4,-1.12315 z m -7.47766,0.93583 h -0.28178 v -0.33999 c 0,-0.0728 0.0278,-0.11033 0.0894,-0.11906 h 0.19235 c 0.13706,0 0.22569,0.0873 0.22569,0.22833 0,0.14499 -0.0865,0.23072 -0.22569,0.23072 z m -0.28178,-0.91652 v -0.0894 c 0,-0.0781 0.0328,-0.11536 0.10478,-0.12012 h 0.1442 c 0.12382,0 0.19764,0.0746 0.19764,0.1995 0,0.0953 -0.0505,0.20637 -0.19315,0.20637 h -0.25347 z m 0.64162,0.3392 -0.0511,-0.0291 0.0444,-0.0381 c 0.0519,-0.045 0.13838,-0.14552 0.13838,-0.32014 0,-0.26617 -0.20505,-0.43815 -0.52202,-0.43815 h -0.40323 a 0.17727083,0.17727083 0 0 0 -0.17039,0.17594 v 1.51263 h 0.58076 c 0.35269,0 0.58023,-0.19368 0.58023,-0.49345 0,-0.1614 -0.0736,-0.29951 -0.19711,-0.36962 z m 7.41442,0.67945 c 0,-0.11272 0.0899,-0.20373 0.20108,-0.20373 0.11112,0 0.20161,0.091 0.20161,0.20373 0,0.11244 -0.0905,0.20373 -0.20161,0.20373 a 0.20240625,0.20240625 0 0 1 -0.20108,-0.20373 m 2.29261,-0.0881 c -0.17357,0 -0.29448,-0.13891 -0.29448,-0.33761 0,-0.19844 0.12091,-0.33734 0.29448,-0.33734 0.1741,0 0.29633,0.1389 0.29633,0.33734 0,0.20188 -0.11932,0.33761 -0.29633,0.33761 z m 0,-0.97155 c -0.36751,0 -0.63394,0.2667 -0.63394,0.63394 0,0.36751 0.26643,0.63421 0.63394,0.63421 0.36804,0 0.63606,-0.2667 0.63606,-0.63421 0,-0.36724 -0.26802,-0.63394 -0.63606,-0.63394 z m 2.18202,10e-4 c -0.14341,0 -0.28231,0.068 -0.37148,0.1815 l -0.0251,0.0323 -0.0196,-0.036 c -0.0643,-0.11801 -0.17463,-0.1778 -0.32808,-0.1778 -0.16087,0 -0.26856,0.0905 -0.31856,0.14446 l -0.0331,0.0357 -0.0124,-0.0471 c -0.0185,-0.0677 -0.0783,-0.1053 -0.16907,-0.1053 h -0.14552 l -0.001,1.21973 h 0.33073 v -0.53816 c 0,-0.0471 0.006,-0.0939 0.0175,-0.14288 0.0317,-0.12991 0.11827,-0.26987 0.26405,-0.25585 0.09,0.009 0.13362,0.0786 0.13362,0.21405 v 0.7231 h 0.33284 v -0.53842 c 0,-0.059 0.005,-0.10319 0.0185,-0.14738 0.027,-0.12435 0.11748,-0.25135 0.25824,-0.25135 0.1016,0 0.13943,0.0579 0.13943,0.21405 v 0.54477 c 0,0.1233 0.0545,0.17833 0.17648,0.17833 h 0.15557 l 2.7e-4,-0.77867 c 0,-0.31115 -0.13573,-0.4691 -0.40296,-0.4691 m -3.00726,0.82418 c -10e-4,0.001 -0.14314,0.1524 -0.33046,0.1524 -0.17066,0 -0.3429,-0.10531 -0.3429,-0.34105 0,-0.20373 0.13361,-0.34581 0.32491,-0.34581 0.0622,0 0.13255,0.0225 0.14367,0.0601 l 0.002,0.007 a 0.12170833,0.12170833 0 0 0 0.11801,0.09 l 0.18097,2.7e-4 v -0.15955 c 0,-0.21061 -0.26564,-0.28707 -0.4445,-0.28707 -0.38205,0 -0.65934,0.26829 -0.65934,0.63791 0,0.36962 0.27437,0.63764 0.65246,0.63764 0.32809,0 0.50668,-0.21748 0.50827,-0.2196 l 0.01,-0.0119 -0.1434,-0.24024 -0.0185,0.0204" id="path12" inkscape:connector-curvature="0" style="fill:#141a26;fill-rule:evenodd;stroke-width:0.26458332"></path>
<path d="m 229.0112,327.0475 c 0,-0.635 0.51117,-1.14988 1.14141,-1.14988 0.6305,0 1.14168,0.51488 1.14168,1.14988 0,0.63526 -0.51118,1.15014 -1.14168,1.15014 -0.63024,0 -1.14141,-0.51461 -1.14141,-1.15014 z m 8.0182,1.15014 c -0.6305,0 -1.14141,-0.51488 -1.14141,-1.15014 0,-0.635 0.51091,-1.14988 1.14141,-1.14988 0.63024,0 1.14167,0.51488 1.14167,1.14988 0,0.63526 -0.51143,1.15014 -1.14167,1.15014 z m 0,-5.74992 c -2.52148,0 -4.56592,2.05952 -4.56592,4.59978 0,2.54079 2.04417,4.60005 4.56592,4.60005 2.52201,0 4.56618,-2.05926 4.56618,-4.60005 0,-2.54 -2.04417,-4.59978 -4.56618,-4.59978 z" id="path14" inkscape:connector-curvature="0" style="fill:#da3743;fill-rule:evenodd;stroke-width:0.26458332"></path>
<path d="m 269.6639,326.69164 c 0.0722,0 0.11483,-0.0326 0.11483,-0.0916 0,-0.0537 -0.0291,-0.0889 -0.10954,-0.0889 h -0.0749 v 0.18045 z m -0.17912,-0.27173 h 0.20293 c 0.11219,0 0.20849,0.0458 0.20849,0.17462 a 0.15875,0.15875 0 0 1 -0.0987,0.14817 l 0.12277,0.22357 h -0.12277 l -0.0939,-0.18838 h -0.10928 v 0.18838 h -0.10953 z m 0.59002,0.27966 c 0,-0.25267 -0.1733,-0.43312 -0.39741,-0.43312 -0.22463,0 -0.39555,0.18045 -0.39555,0.43312 0,0.25585 0.17092,0.43048 0.39555,0.43048 0.22411,0 0.39767,-0.17463 0.39767,-0.43048 z m -0.89985,0 c 0,-0.31485 0.22701,-0.52996 0.50244,-0.52996 0.27755,0 0.50456,0.21511 0.50456,0.52996 0,0.31486 -0.22701,0.53023 -0.50456,0.53023 -0.27543,0 -0.50271,-0.21537 -0.50271,-0.53023 z m -3.35095,2.15186 a 0.12620625,0.12620625 0 0 0 0.12488,-0.12488 v -0.4617 a 0.12567708,0.12567708 0 0 0 -0.12408,-0.12489 h -0.0199 c -0.0561,0 -0.11192,-0.0561 -0.11192,-0.11271 v -2.73579 c 0,-0.0624 -0.0622,-0.12488 -0.12409,-0.12488 h -0.4564 c -0.0619,0 -0.12383,0.0624 -0.12383,0.12488 v 3.0308 l 0.002,0.0788 c 0,0.22569 0.2241,0.45111 0.44794,0.45111 z m -20.08849,-2.96228 c 0.62098,0 1.14512,0.52996 1.14512,1.15835 a 1.1477625,1.1477625 0 0 1 -1.14512,1.14856 c -0.62838,0 -1.13929,-0.51462 -1.13929,-1.14856 0,-0.6387 0.51091,-1.15835 1.13929,-1.15835 z m 0,-0.72945 c -1.02737,0 -1.86346,0.84666 -1.86346,1.8878 0,1.05304 0.81809,1.87828 1.86346,1.87828 1.04828,0 1.86928,-0.82524 1.86928,-1.87854 0,-1.04061 -0.83873,-1.88754 -1.86928,-1.88754 z m 14.87011,2.94375 c -0.0336,0.0966 -0.23653,0.27808 -0.46751,0.27808 -0.24236,0 -0.37756,-0.14764 -0.37756,-0.36909 0,-0.23284 0.16324,-0.37465 0.46196,-0.37465 0.20849,0 0.38311,0.0794 0.38311,0.0794 z m -0.30427,-1.93595 c -0.42254,0 -0.83396,0.10768 -0.89032,0.13044 -0.0564,0.0169 -0.10716,0.0624 -0.0847,0.15901 l 0.0566,0.29527 c 0.0111,0.0794 0.0619,0.14182 0.14631,0.11351 0.1524,-0.0455 0.49609,-0.0966 0.7329,-0.0966 0.27596,0 0.37174,0.15901 0.36036,0.49398 0,0 -0.23654,-0.0738 -0.50139,-0.0738 -0.65934,0 -1.03716,0.35771 -1.03716,0.82312 0,0.56223 0.36089,0.89693 0.87921,0.89693 a 1.1361208,1.1361208 0 0 0 0.81729,-0.32914 v 0.14102 c 0,0.0683 0.0564,0.12489 0.12409,0.12489 h 0.0458 a 0.08334375,0.08334375 0 0 0 0.0159,10e-4 h 0.19182 a 0.12567708,0.12567708 0 0 0 0.12409,-0.12489 v -1.41367 c 0,-0.71543 -0.16933,-1.14114 -0.98081,-1.14114 z m -4.73075,0 c -0.499,0 -0.74109,0.26961 -0.83793,0.37835 V 326.349 a 0.12567708,0.12567708 0 0 0 -0.12409,-0.12488 h -0.29475 a 0.1254125,0.1254125 0 0 0 -0.12409,0.12488 v 2.37331 a 0.12964583,0.12964583 0 0 0 0.12409,0.12489 h 0.41699 c 0.12409,0 0.16351,-0.0286 0.16351,-0.12489 v -1.49886 c 0.0619,-0.18177 0.22542,-0.40878 0.56356,-0.40878 0.31538,0 0.45059,0.21008 0.45059,0.55059 v 1.35705 c 0,0.068 0.0566,0.12489 0.12435,0.12489 h 0.45614 a 0.12964583,0.12964583 0 0 0 0.12409,-0.12489 v -1.35705 c 0,-0.63579 -0.21431,-1.19776 -1.04246,-1.19776 z m -6.205,2.09497 c -0.32703,0 -0.54108,-0.14764 -0.54108,-0.14764 v -0.93716 c 0.0564,-0.14763 0.2368,-0.36327 0.57494,-0.36327 0.40561,0 0.6141,0.35772 0.6141,0.72655 0,0.36909 -0.2196,0.72125 -0.64823,0.72125 z m 0.12964,-2.09497 c -0.53552,0 -0.83238,0.36777 -0.8501,0.39079 v -0.20903 a 0.12567708,0.12567708 0 0 0 -0.12409,-0.12514 h -0.27702 a 0.12567708,0.12567708 0 0 0 -0.12383,0.12488 v 3.44038 a 0.12964583,0.12964583 0 0 0 0.12383,0.12514 h 0.45667 c 0.0619,0 0.12382,-0.0627 0.12382,-0.12514 v -0.98769 c 0.11827,0.0455 0.36645,0.10795 0.62548,0.10795 0.77787,0 1.29064,-0.60193 1.29064,-1.36843 0,-0.79481 -0.53552,-1.37371 -1.2454,-1.37371 z m 18.58433,1.03875 c -0.0111,-0.25559 -0.21404,-0.45429 -0.50138,-0.45429 -0.31565,0 -0.51858,0.19315 -0.55219,0.45429 z m -0.48418,-1.03902 c 0.67601,0 1.19433,0.50536 1.19433,1.21497 0,0.0397 -0.006,0.13044 -0.0111,0.17039 a 0.13255625,0.13255625 0 0 1 -0.12409,0.11906 h -1.66793 c 0.006,0.32359 0.2704,0.60749 0.64823,0.60749 0.25903,0 0.43921,-0.0966 0.55774,-0.19315 0.0619,-0.0511 0.12965,-0.0566 0.16907,0 l 0.2196,0.29527 c 0.045,0.0511 0.0508,0.11378 -0.0111,0.1704 a 1.463675,1.463675 0 0 1 -0.96943,0.35771 c -0.77761,0 -1.31868,-0.62441 -1.31868,-1.37398 0,-0.73792 0.54107,-1.36789 1.31312,-1.36789 z m -4.41061,2.09524 c -0.33813,0 -0.51858,-0.2159 -0.57494,-0.36354 v -0.93663 c 0,0 0.21432,-0.14763 0.54108,-0.14763 0.42836,0 0.64823,0.35189 0.64823,0.72099 0,0.36909 -0.20876,0.72681 -0.61437,0.72681 z m 0.0619,-2.09497 c -0.2593,0 -0.51859,0.0624 -0.63686,0.1135 v -0.99933 a 0.12964583,0.12964583 0 0 0 -0.12409,-0.12488 h -0.4564 c -0.0619,0 -0.12383,0.0624 -0.12383,0.12488 v 3.44064 a 0.12964583,0.12964583 0 0 0 0.12383,0.12489 h 0.19738 c 0.004,0 0.007,0 0.0111,-10e-4 h 0.0529 a 0.12567708,0.12567708 0 0 0 0.12461,-0.12489 v -0.19394 l 0.003,-0.01 c 0,0 0.29898,0.39158 0.86783,0.39158 0.71041,0 1.22317,-0.62441 1.22317,-1.37371 0,-0.7665 -0.49027,-1.36816 -1.26232,-1.36816 z m -3.98728,-1.01071 h -2.65059 a 0.10742083,0.10742083 0 0 0 -0.10689,0.10795 v 0.46566 c 0,0.0566 0.045,0.10769 0.10689,0.10769 h 0.9562 v 2.90116 a 0.111125,0.111125 0 0 0 0.10716,0.10795 h 0.52387 a 0.111125,0.111125 0 0 0 0.10743,-0.10795 v -2.90116 h 0.95593 a 0.10742083,0.10742083 0 0 0 0.10716,-0.10795 v -0.4654 a 0.10742083,0.10742083 0 0 0 -0.10716,-0.10795 z m -6.30978,2.04946 c -0.0114,-0.25559 -0.21431,-0.45429 -0.50165,-0.45429 -0.31538,0 -0.51858,0.19315 -0.55218,0.45429 z m -0.48472,-1.03902 c 0.67628,0 1.1946,0.50536 1.1946,1.21497 0,0.0397 -0.005,0.13044 -0.0111,0.17039 a 0.13282083,0.13282083 0 0 1 -0.12409,0.11906 h -1.66794 c 0.006,0.32359 0.27041,0.60749 0.64823,0.60749 0.25929,0 0.43921,-0.0966 0.55774,-0.19315 0.0619,-0.0511 0.12965,-0.0566 0.16907,0 l 0.21961,0.29527 c 0.0452,0.0511 0.0508,0.11378 -0.0111,0.1704 a 1.463675,1.463675 0 0 1 -0.96943,0.35771 c -0.77761,0 -1.31842,-0.62441 -1.31842,-1.37398 0,-0.73792 0.54081,-1.36789 1.31286,-1.36789 z" id="path16" inkscape:connector-curvature="0" style="fill:#141a26;fill-rule:evenodd;stroke-width:0.26458332"></path>
</g>
</svg>